<svg width="128" height="128" viewBox="0 0 128 128" fill="none" xmlns="http://www.w3.org/2000/svg">
<path d="M95.9987 98.6667C100.425 98.6667 103.999 95.0933 103.999 90.6667C103.999 86.24 100.425 82.6667 95.9987 82.6667C91.572 82.6667 87.9987 86.24 87.9987 90.6667C87.9987 95.0933 91.572 98.6667 95.9987 98.6667ZM103.999 50.6667H90.6654V64H114.452L103.999 50.6667ZM31.9987 98.6667C36.4254 98.6667 39.9987 95.0933 39.9987 90.6667C39.9987 86.24 36.4254 82.6667 31.9987 82.6667C27.572 82.6667 23.9987 86.24 23.9987 90.6667C23.9987 95.0933 27.572 98.6667 31.9987 98.6667ZM106.665 42.6667L122.665 64V90.6667H111.999C111.999 99.52 104.852 106.667 95.9987 106.667C87.1454 106.667 79.9987 99.52 79.9987 90.6667H47.9987C47.9987 99.52 40.852 106.667 31.9987 106.667C23.1454 106.667 15.9987 99.52 15.9987 90.6667H5.33203V32C5.33203 26.08 10.0787 21.3333 15.9987 21.3333H90.6654V42.6667H106.665ZM15.9987 32V80H20.052C22.9854 76.7467 27.252 74.6667 31.9987 74.6667C36.7454 74.6667 41.012 76.7467 43.9454 80H79.9987V32H15.9987Z" fill="#6C6C6C"/>
</svg>
